<mxfile host="app.diagrams.net" agent="Mozilla/5.0 (Windows NT 10.0; Win64; x64) AppleWebKit/537.36 (KHTML, like Gecko) Chrome/138.0.0.0 Safari/537.36 Edg/138.0.0.0" version="28.0.3">
  <diagram name="Page-1" id="FAtJ0V6YEHCZEtDZKV_H">
    <mxGraphModel dx="1371" dy="868" grid="1" gridSize="10" guides="1" tooltips="1" connect="1" arrows="1" fold="1" page="1" pageScale="1" pageWidth="827" pageHeight="1169" math="0" shadow="0">
      <root>
        <mxCell id="0" />
        <mxCell id="1" parent="0" />
        <mxCell id="upaL1L_dqLUM5AP28dGt-10" style="edgeStyle=orthogonalEdgeStyle;rounded=0;orthogonalLoop=1;jettySize=auto;html=1;exitX=1;exitY=0.5;exitDx=0;exitDy=0;entryX=0;entryY=0.5;entryDx=0;entryDy=0;" edge="1" parent="1" source="upaL1L_dqLUM5AP28dGt-3" target="upaL1L_dqLUM5AP28dGt-5">
          <mxGeometry relative="1" as="geometry" />
        </mxCell>
        <mxCell id="upaL1L_dqLUM5AP28dGt-11" style="edgeStyle=orthogonalEdgeStyle;rounded=0;orthogonalLoop=1;jettySize=auto;html=1;exitX=1;exitY=0.5;exitDx=0;exitDy=0;entryX=0;entryY=0.5;entryDx=0;entryDy=0;" edge="1" parent="1" source="upaL1L_dqLUM5AP28dGt-3" target="upaL1L_dqLUM5AP28dGt-6">
          <mxGeometry relative="1" as="geometry" />
        </mxCell>
        <mxCell id="upaL1L_dqLUM5AP28dGt-12" style="edgeStyle=orthogonalEdgeStyle;rounded=0;orthogonalLoop=1;jettySize=auto;html=1;exitX=1;exitY=0.5;exitDx=0;exitDy=0;entryX=0;entryY=0.5;entryDx=0;entryDy=0;" edge="1" parent="1" source="upaL1L_dqLUM5AP28dGt-3" target="upaL1L_dqLUM5AP28dGt-8">
          <mxGeometry relative="1" as="geometry" />
        </mxCell>
        <mxCell id="upaL1L_dqLUM5AP28dGt-17" style="edgeStyle=orthogonalEdgeStyle;rounded=0;orthogonalLoop=1;jettySize=auto;html=1;exitX=1;exitY=0.5;exitDx=0;exitDy=0;entryX=0;entryY=0.5;entryDx=0;entryDy=0;" edge="1" parent="1" source="upaL1L_dqLUM5AP28dGt-3" target="upaL1L_dqLUM5AP28dGt-9">
          <mxGeometry relative="1" as="geometry" />
        </mxCell>
        <mxCell id="upaL1L_dqLUM5AP28dGt-18" style="edgeStyle=orthogonalEdgeStyle;rounded=0;orthogonalLoop=1;jettySize=auto;html=1;exitX=1;exitY=0.5;exitDx=0;exitDy=0;entryX=0;entryY=0.5;entryDx=0;entryDy=0;" edge="1" parent="1" source="upaL1L_dqLUM5AP28dGt-3" target="upaL1L_dqLUM5AP28dGt-7">
          <mxGeometry relative="1" as="geometry">
            <Array as="points">
              <mxPoint x="170" y="310" />
              <mxPoint x="170" y="375" />
            </Array>
          </mxGeometry>
        </mxCell>
        <mxCell id="upaL1L_dqLUM5AP28dGt-3" value="DV360" style="ellipse;whiteSpace=wrap;html=1;" vertex="1" parent="1">
          <mxGeometry x="20" y="270" width="120" height="80" as="geometry" />
        </mxCell>
        <mxCell id="upaL1L_dqLUM5AP28dGt-4" value="MediaCom" style="ellipse;whiteSpace=wrap;html=1;" vertex="1" parent="1">
          <mxGeometry x="20" y="430" width="120" height="80" as="geometry" />
        </mxCell>
        <mxCell id="upaL1L_dqLUM5AP28dGt-5" value="CSKI_UK_DIS" style="shape=parallelogram;perimeter=parallelogramPerimeter;whiteSpace=wrap;html=1;fixedSize=1;" vertex="1" parent="1">
          <mxGeometry x="200" y="240" width="170" height="30" as="geometry" />
        </mxCell>
        <mxCell id="upaL1L_dqLUM5AP28dGt-6" value="FC_UK_DIS_DR" style="shape=parallelogram;perimeter=parallelogramPerimeter;whiteSpace=wrap;html=1;fixedSize=1;" vertex="1" parent="1">
          <mxGeometry x="200" y="270" width="170" height="30" as="geometry" />
        </mxCell>
        <mxCell id="upaL1L_dqLUM5AP28dGt-7" value="FC_UK_DIS" style="shape=parallelogram;perimeter=parallelogramPerimeter;whiteSpace=wrap;html=1;fixedSize=1;" vertex="1" parent="1">
          <mxGeometry x="200" y="360" width="170" height="30" as="geometry" />
        </mxCell>
        <mxCell id="upaL1L_dqLUM5AP28dGt-8" value="MARELLA_UK_DIS_DR" style="shape=parallelogram;perimeter=parallelogramPerimeter;whiteSpace=wrap;html=1;fixedSize=1;" vertex="1" parent="1">
          <mxGeometry x="200" y="300" width="170" height="30" as="geometry" />
        </mxCell>
        <mxCell id="upaL1L_dqLUM5AP28dGt-9" value="TUI_UK_DIS" style="shape=parallelogram;perimeter=parallelogramPerimeter;whiteSpace=wrap;html=1;fixedSize=1;" vertex="1" parent="1">
          <mxGeometry x="200" y="330" width="170" height="30" as="geometry" />
        </mxCell>
        <mxCell id="upaL1L_dqLUM5AP28dGt-19" value="RTB House" style="ellipse;whiteSpace=wrap;html=1;" vertex="1" parent="1">
          <mxGeometry x="20" y="540" width="120" height="80" as="geometry" />
        </mxCell>
      </root>
    </mxGraphModel>
  </diagram>
</mxfile>
